# xmcd
#
# Track frame offsets:
#	150
#	22890
#	42090
#	72105
#	97510
#	121240
#	146745
#	176284
#	203189
#	216900
#
# Disc length: 3196 seconds
#
# Revision: 1
# Processed by: cddbd v1.5.2PL0 Copyright (c) Steve Scherf et al.
# Submitted via: audiograbber 1.83.01
#
DISCID=7e0c7a0a
DTITLE=Alpendollar - Yesterday I Felt Young
DYEAR=2012
DGENRE=Blues Rock
TTITLE0=Cadillac
TTITLE1=Moving
TTITLE2=You and Me
TTITLE3=Blues on Me
TTITLE4=Kitchen Song
TTITLE5=Helltrain
TTITLE6=Heartbeat
TTITLE7=Call Me
TTITLE8=Ride On
TTITLE9=Wolfi´s Tune
EXTD=
EXTT0=
EXTT1=
EXTT2=
EXTT3=
EXTT4=
EXTT5=
EXTT6=
EXTT7=
EXTT8=
EXTT9=
PLAYORDER=
